<svg width="24" height="24" viewBox="0 0 24 24" fill="none" xmlns="http://www.w3.org/2000/svg">
<g id="Iconly/Bulk/Discount">
<path id="Fill 1" d="M11.9992 21.9981C11.2302 21.9981 10.4622 21.7061 9.8752 21.1231L9.1452 20.3931C8.8622 20.1111 8.4832 19.9551 8.0812 19.9541H7.0542C5.3942 19.9541 4.0432 18.6031 4.0432 16.9431V15.9151C4.0422 15.5141 3.8862 15.1351 3.6032 14.8501L2.8852 14.1331C1.7092 12.9641 1.7042 11.0531 2.8742 9.87615L3.6042 9.14515C3.8862 8.86215 4.0422 8.48315 4.0432 8.08115V7.05515C4.0432 5.39415 5.3942 4.04315 7.0542 4.04315H8.0822C8.4832 4.04315 8.8612 3.88715 9.1462 3.60215L9.8652 2.88515C11.0342 1.70915 12.9442 1.70315 14.1222 2.87415L14.8522 3.60415C15.1362 3.88715 15.5142 4.04315 15.9152 4.04315H16.9432C18.6032 4.04315 19.9542 5.39415 19.9542 7.05515V8.08215C19.9552 8.48315 20.1112 8.86215 20.3942 9.14715L21.1122 9.86515C21.6812 10.4311 21.9962 11.1851 21.9992 11.9901C22.0012 12.7901 21.6932 13.5431 21.1322 14.1121C21.1222 14.1221 21.1132 14.1331 21.1032 14.1421L20.3932 14.8521C20.1112 15.1351 19.9552 15.5141 19.9542 15.9161V16.9431C19.9542 18.6031 18.6032 19.9541 16.9432 19.9541H15.9152C15.5142 19.9551 15.1352 20.1111 14.8512 20.3941L14.1322 21.1121C13.5462 21.7021 12.7722 21.9981 11.9992 21.9981Z" fill="#48C479"/>
<path id="Combined Shape" fill-rule="evenodd" clip-rule="evenodd" d="M10.0426 10.051C9.87757 10.216 9.66357 10.305 9.42657 10.305C9.20457 10.305 8.98657 10.214 8.81157 10.05C8.64557 9.88495 8.55157 9.65895 8.55157 9.42995C8.55157 9.21195 8.64357 8.98795 8.80557 8.81495C8.89457 8.72495 9.00057 8.65695 9.10657 8.62095C9.40857 8.48295 9.80957 8.56395 10.0476 8.81395C10.1326 8.89895 10.1976 8.99195 10.2406 9.08895C10.2876 9.19295 10.3116 9.31095 10.3116 9.42995C10.3116 9.66795 10.2166 9.88895 10.0426 10.051ZM15.1904 8.80985C14.8494 8.46985 14.2944 8.46985 13.9534 8.80985L8.81337 13.9499C8.47237 14.2909 8.47237 14.8459 8.81337 15.1879C8.97937 15.3529 9.19837 15.4439 9.43237 15.4439C9.66637 15.4439 9.88537 15.3529 10.0504 15.1879L15.1904 10.0479C15.5314 9.70585 15.5314 9.15185 15.1904 8.80985ZM14.9055 13.764C14.5815 13.628 14.1975 13.702 13.9415 13.958C13.8885 14.02 13.8135 14.116 13.7625 14.229C13.7085 14.351 13.7015 14.482 13.7015 14.57C13.7015 14.658 13.7085 14.788 13.7625 14.91C13.8125 15.022 13.8725 15.113 13.9515 15.192C14.1325 15.36 14.3425 15.445 14.5765 15.445C14.7985 15.445 15.0165 15.355 15.1955 15.188C15.3545 15.029 15.4415 14.809 15.4415 14.57C15.4415 14.33 15.3545 14.111 15.1945 13.951C15.1065 13.864 15.0005 13.796 14.9055 13.764Z" fill="white"/>
</g>
</svg>
