<svg width="16" height="18" viewBox="0 0 16 18" fill="none" xmlns="http://www.w3.org/2000/svg">
<g clip-path="url(#clip0_1_448)">
<path d="M8.00368 4.95732C5.73225 4.95732 3.90011 6.76084 3.90011 8.99677C3.90011 11.2327 5.73225 13.0362 8.00368 13.0362C10.2751 13.0362 12.1073 11.2327 12.1073 8.99677C12.1073 6.76084 10.2751 4.95732 8.00368 4.95732ZM8.00368 11.6229C6.53583 11.6229 5.33583 10.4452 5.33583 8.99677C5.33583 7.54834 6.53225 6.3706 8.00368 6.3706C9.47511 6.3706 10.6715 7.54834 10.6715 8.99677C10.6715 10.4452 9.47154 11.6229 8.00368 11.6229ZM13.2322 4.79209C13.2322 5.31592 12.8037 5.73428 12.2751 5.73428C11.743 5.73428 11.318 5.3124 11.318 4.79209C11.318 4.27178 11.7465 3.8499 12.2751 3.8499C12.8037 3.8499 13.2322 4.27178 13.2322 4.79209ZM15.9501 5.74834C15.8894 4.48623 15.5965 3.36826 14.6572 2.44717C13.7215 1.52607 12.5858 1.23779 11.3037 1.17451C9.98225 1.10068 6.02154 1.10068 4.70011 1.17451C3.42154 1.23428 2.28583 1.52256 1.34654 2.44365C0.407258 3.36474 0.117972 4.48271 0.0536865 5.74482C-0.0213135 7.0456 -0.0213135 10.9444 0.0536865 12.2452C0.114401 13.5073 0.407258 14.6253 1.34654 15.5464C2.28583 16.4675 3.41797 16.7558 4.70011 16.819C6.02154 16.8929 9.98225 16.8929 11.3037 16.819C12.5858 16.7593 13.7215 16.471 14.6572 15.5464C15.593 14.6253 15.8858 13.5073 15.9501 12.2452C16.0251 10.9444 16.0251 7.04912 15.9501 5.74834ZM14.243 13.6409C13.9644 14.33 13.4251 14.8608 12.7215 15.1386C11.668 15.5499 9.16797 15.455 8.00368 15.455C6.8394 15.455 4.33583 15.5464 3.28583 15.1386C2.58583 14.8643 2.04654 14.3335 1.7644 13.6409C1.34654 12.6038 1.44297 10.1429 1.44297 8.99677C1.44297 7.85068 1.35011 5.38623 1.7644 4.35263C2.04297 3.66357 2.58226 3.13271 3.28583 2.85498C4.3394 2.44365 6.8394 2.53857 8.00368 2.53857C9.16797 2.53857 11.6715 2.44717 12.7215 2.85498C13.4215 3.1292 13.9608 3.66006 14.243 4.35263C14.6608 5.38974 14.5644 7.85068 14.5644 8.99677C14.5644 10.1429 14.6608 12.6073 14.243 13.6409Z" fill="#6C6C6C"/>
</g>
<defs>
<clipPath id="clip0_1_448">
<rect width="16" height="18" fill="white"/>
</clipPath>
</defs>
</svg>
