<svg width="142" height="25" viewBox="0 0 142 25" fill="none" xmlns="http://www.w3.org/2000/svg">
<path d="M8.40959 24.9799C6.49014 24.9799 4.83347 24.6714 3.43959 24.0544C2.06855 23.4374 0.983149 22.5234 0.183379 21.3123L4.57069 17.1307C5.0734 17.9305 5.65609 18.536 6.31876 18.9473C6.98143 19.3586 7.71264 19.5643 8.51241 19.5643C9.44929 19.5643 10.2034 19.3015 10.7746 18.7759C11.3687 18.2275 11.7686 17.4163 11.9743 16.3423L14.0651 5.7511H5.77034L6.8329 0.506896H21.8457L18.7266 15.9653C18.2925 18.1818 17.6298 19.9527 16.7386 21.2781C15.8474 22.5806 14.7049 23.5289 13.311 24.123C11.9171 24.6942 10.2833 24.9799 8.40959 24.9799ZM29.4742 24.8085C27.9661 24.8085 26.6522 24.4886 25.5325 23.8488C24.4357 23.1861 23.6587 22.2149 23.2017 20.9353C22.7447 19.6557 22.699 18.0676 23.0646 16.171L25.1212 5.92248H31.6336L29.7141 15.554C29.4628 16.7422 29.5313 17.6563 29.9198 18.2961C30.3311 18.9359 31.0509 19.2558 32.0792 19.2558C33.176 19.2558 34.09 18.9245 34.8212 18.2618C35.5753 17.5763 36.0894 16.5251 36.3637 15.1084L38.2145 5.92248H44.727L41.0252 24.5H34.8555L35.9181 19.2558L36.7407 20.7639C35.8495 22.1578 34.7527 23.1861 33.4502 23.8488C32.1706 24.4886 30.8452 24.8085 29.4742 24.8085ZM52.6551 24.8085C51.0098 24.8085 49.456 24.6371 47.9936 24.2943C46.5311 23.9287 45.4 23.4946 44.6003 22.9919L46.9653 18.4332C47.8336 18.9816 48.8505 19.4043 50.0158 19.7014C51.1812 19.9984 52.3123 20.147 53.4092 20.147C54.4831 20.147 55.2486 20.0327 55.7056 19.8042C56.1626 19.5529 56.3912 19.2215 56.3912 18.8102C56.3912 18.4446 56.1512 18.1818 55.6714 18.0219C55.2143 17.8391 54.6202 17.6905 53.889 17.5763C53.1578 17.462 52.3809 17.3135 51.5583 17.1307C50.7585 16.9479 49.993 16.6851 49.2618 16.3423C48.5306 15.9996 47.925 15.5197 47.4452 14.9028C46.9881 14.2629 46.7596 13.4175 46.7596 12.3663C46.7596 10.8811 47.1938 9.6357 48.0621 8.63028C48.9304 7.62485 50.1072 6.87078 51.5925 6.36807C53.1007 5.86536 54.7916 5.614 56.6654 5.614C57.9907 5.614 59.2703 5.73968 60.5043 5.99103C61.7382 6.24239 62.8122 6.608 63.7262 7.08786L61.4297 11.6466C60.5157 11.0981 59.5788 10.7325 58.6191 10.5497C57.6594 10.3441 56.7568 10.2412 55.9113 10.2412C54.8373 10.2412 54.0718 10.3783 53.6148 10.6526C53.1578 10.9268 52.9293 11.2581 52.9293 11.6466C52.9293 11.9893 53.1578 12.2635 53.6148 12.4692C54.0947 12.652 54.6888 12.8119 55.3972 12.949C56.1284 13.0633 56.9053 13.2118 57.7279 13.3946C58.5505 13.5546 59.316 13.8059 60.0244 14.1487C60.7556 14.4914 61.3497 14.9713 61.8067 15.5883C62.2866 16.2052 62.5265 17.0393 62.5265 18.0904C62.5265 19.5529 62.0809 20.7868 61.1898 21.7922C60.3215 22.7976 59.1446 23.5517 57.6594 24.0544C56.1741 24.5571 54.506 24.8085 52.6551 24.8085ZM72.5281 24.8085C71.0885 24.8085 69.8546 24.5343 68.8263 23.9859C67.798 23.4146 67.0668 22.592 66.6326 21.518C66.1985 20.4212 66.1299 19.1187 66.427 17.6106L69.5804 1.7751H76.0928L72.9394 17.5763C72.8251 18.2846 72.9051 18.8331 73.1793 19.2215C73.4535 19.5871 73.922 19.7699 74.5846 19.7699C74.9274 19.7699 75.2587 19.7242 75.5786 19.6328C75.8985 19.5414 76.2184 19.4043 76.5384 19.2215L77.361 23.7117C76.6755 24.1001 75.91 24.3743 75.0645 24.5343C74.2419 24.7171 73.3964 24.8085 72.5281 24.8085ZM64.9188 11.4752L65.9128 6.608H79.349L78.3892 11.4752H64.9188ZM89.2611 9.79566H100.401L99.4067 14.8685H88.2671L89.2611 9.79566ZM87.8558 19.2558H100.435L99.3382 24.5H80.1094L84.908 0.506896H103.691L102.629 5.7511H90.5293L87.8558 19.2558ZM111.398 24.8085C110.073 24.8085 108.804 24.4771 107.593 23.8145C106.382 23.1518 105.4 22.1921 104.646 20.9353C103.914 19.6785 103.549 18.1475 103.549 16.3423C103.549 14.7885 103.811 13.3603 104.337 12.0579C104.863 10.7554 105.582 9.62428 106.496 8.66455C107.433 7.70483 108.507 6.96218 109.718 6.43662C110.952 5.88821 112.255 5.614 113.626 5.614C115.134 5.614 116.425 5.91106 117.499 6.50517C118.596 7.07644 119.396 8.01331 119.898 9.31579C120.401 10.5954 120.515 12.3321 120.241 14.5257C120.035 16.6051 119.544 18.4217 118.767 19.9756C117.99 21.5294 116.985 22.7291 115.751 23.5746C114.517 24.3972 113.066 24.8085 111.398 24.8085ZM113.66 19.5643C114.528 19.5643 115.294 19.3472 115.957 18.913C116.619 18.4789 117.133 17.8733 117.499 17.0964C117.887 16.3195 118.082 15.4169 118.082 14.3886C118.082 13.3146 117.773 12.4577 117.156 11.8179C116.539 11.1553 115.671 10.8239 114.551 10.8239C113.706 10.8239 112.94 11.0524 112.255 11.5094C111.592 11.9436 111.067 12.5491 110.678 13.3261C110.312 14.103 110.13 15.0056 110.13 16.0339C110.13 17.1078 110.438 17.9647 111.055 18.6046C111.672 19.2444 112.54 19.5643 113.66 19.5643ZM116.402 24.5L117.053 21.3809L118.287 15.2455L119.11 9.11014L119.761 5.92248H126.274L122.572 24.5H116.402ZM135.159 24.8085C133.719 24.8085 132.486 24.5343 131.457 23.9859C130.429 23.4146 129.698 22.592 129.264 21.518C128.829 20.4212 128.761 19.1187 129.058 17.6106L132.211 1.7751H138.724L135.57 17.5763C135.456 18.2846 135.536 18.8331 135.81 19.2215C136.085 19.5871 136.553 19.7699 137.216 19.7699C137.558 19.7699 137.89 19.7242 138.21 19.6328C138.53 19.5414 138.849 19.4043 139.169 19.2215L139.992 23.7117C139.306 24.1001 138.541 24.3743 137.695 24.5343C136.873 24.7171 136.027 24.8085 135.159 24.8085ZM127.55 11.4752L128.544 6.608H141.98L141.02 11.4752H127.55Z" fill="black"/>
</svg>
