<svg width="472" height="234" viewBox="0 0 472 234" fill="none" xmlns="http://www.w3.org/2000/svg">
<path d="M2.9 49V-3.33786e-06H14.31L34.61 33.32H28.59L48.33 -3.33786e-06H59.74L59.88 49H47.14L47 19.39H49.17L34.4 44.17H28.24L13.05 19.39H15.71V49H2.9ZM88.0971 49.63C83.9438 49.63 80.2571 48.79 77.0371 47.11C73.8171 45.43 71.2738 43.12 69.4071 40.18C67.5871 37.1933 66.6771 33.7867 66.6771 29.96C66.6771 26.1333 67.5871 22.75 69.4071 19.81C71.2738 16.87 73.8171 14.5833 77.0371 12.95C80.2571 11.27 83.9438 10.43 88.0971 10.43C92.2504 10.43 95.9371 11.27 99.1571 12.95C102.424 14.5833 104.967 16.87 106.787 19.81C108.607 22.75 109.517 26.1333 109.517 29.96C109.517 33.7867 108.607 37.1933 106.787 40.18C104.967 43.12 102.424 45.43 99.1571 47.11C95.9371 48.79 92.2504 49.63 88.0971 49.63ZM88.0971 39.06C89.6371 39.06 90.9904 38.71 92.1571 38.01C93.3704 37.31 94.3271 36.2833 95.0271 34.93C95.7271 33.53 96.0771 31.8733 96.0771 29.96C96.0771 28.0467 95.7271 26.4367 95.0271 25.13C94.3271 23.7767 93.3704 22.75 92.1571 22.05C90.9904 21.35 89.6371 21 88.0971 21C86.6038 21 85.2504 21.35 84.0371 22.05C82.8704 22.75 81.9138 23.7767 81.1671 25.13C80.4671 26.4367 80.1171 28.0467 80.1171 29.96C80.1171 31.8733 80.4671 33.53 81.1671 34.93C81.9138 36.2833 82.8704 37.31 84.0371 38.01C85.2504 38.71 86.6038 39.06 88.0971 39.06ZM129.468 49.63C126.248 49.63 123.098 49.2567 120.018 48.51C116.985 47.7633 114.535 46.83 112.668 45.71L116.658 36.61C118.432 37.6833 120.508 38.5467 122.888 39.2C125.268 39.8067 127.602 40.11 129.888 40.11C132.128 40.11 133.668 39.8767 134.508 39.41C135.395 38.9433 135.838 38.3133 135.838 37.52C135.838 36.7733 135.418 36.2367 134.578 35.91C133.785 35.5367 132.712 35.2567 131.358 35.07C130.052 34.8833 128.605 34.6733 127.018 34.44C125.432 34.2067 123.822 33.9033 122.188 33.53C120.602 33.11 119.132 32.5033 117.778 31.71C116.472 30.87 115.422 29.75 114.628 28.35C113.835 26.95 113.438 25.1767 113.438 23.03C113.438 20.6033 114.138 18.4567 115.538 16.59C116.985 14.6767 119.085 13.1833 121.838 12.11C124.592 10.99 127.952 10.43 131.918 10.43C134.578 10.43 137.262 10.71 139.968 11.27C142.722 11.7833 145.032 12.5767 146.898 13.65L142.908 22.68C141.042 21.6067 139.175 20.8833 137.308 20.51C135.442 20.09 133.668 19.88 131.988 19.88C129.748 19.88 128.162 20.1367 127.228 20.65C126.342 21.1633 125.898 21.7933 125.898 22.54C125.898 23.2867 126.295 23.87 127.088 24.29C127.882 24.6633 128.932 24.9667 130.238 25.2C131.592 25.3867 133.062 25.5967 134.648 25.83C136.235 26.0167 137.822 26.32 139.408 26.74C141.042 27.16 142.512 27.79 143.818 28.63C145.172 29.4233 146.245 30.52 147.038 31.92C147.832 33.2733 148.228 35.0233 148.228 37.17C148.228 39.5033 147.505 41.6033 146.058 43.47C144.658 45.3367 142.558 46.83 139.758 47.95C137.005 49.07 133.575 49.63 129.468 49.63ZM170.899 49.63C166.046 49.63 162.266 48.44 159.559 46.06C156.853 43.6333 155.499 39.9933 155.499 35.14V2.59H168.799V35C168.799 36.3533 169.173 37.4267 169.919 38.22C170.666 38.9667 171.623 39.34 172.789 39.34C174.376 39.34 175.729 38.9433 176.849 38.15L180.139 47.46C179.019 48.2067 177.643 48.7433 176.009 49.07C174.376 49.4433 172.673 49.63 170.899 49.63ZM149.969 22.4V12.46H177.479V22.4H149.969ZM219.149 21.49H241.759V32.2H219.149V21.49ZM220.129 49H206.269V-3.33786e-06H244.699V10.71H220.129V49ZM272.833 49V41.93L271.923 40.18V27.16C271.923 25.06 271.269 23.45 269.963 22.33C268.703 21.1633 266.673 20.58 263.873 20.58C262.053 20.58 260.209 20.8833 258.343 21.49C256.476 22.05 254.889 22.8433 253.583 23.87L249.103 14.84C251.249 13.44 253.816 12.3667 256.803 11.62C259.836 10.8267 262.846 10.43 265.833 10.43C271.993 10.43 276.753 11.8533 280.113 14.7C283.519 17.5 285.223 21.91 285.223 27.93V49H272.833ZM261.633 49.63C258.599 49.63 256.033 49.1167 253.933 48.09C251.833 47.0633 250.223 45.6633 249.103 43.89C248.029 42.1167 247.493 40.1333 247.493 37.94C247.493 35.6067 248.076 33.6 249.243 31.92C250.456 30.1933 252.299 28.8867 254.773 28C257.246 27.0667 260.443 26.6 264.363 26.6H273.323V33.53H266.183C264.036 33.53 262.519 33.88 261.633 34.58C260.793 35.28 260.373 36.2133 260.373 37.38C260.373 38.5467 260.816 39.48 261.703 40.18C262.589 40.88 263.803 41.23 265.343 41.23C266.789 41.23 268.096 40.88 269.263 40.18C270.476 39.4333 271.363 38.3133 271.923 36.82L273.743 41.72C273.043 44.3333 271.666 46.3167 269.613 47.67C267.606 48.9767 264.946 49.63 261.633 49.63ZM307.408 49.63C304.188 49.63 301.038 49.2567 297.958 48.51C294.924 47.7633 292.474 46.83 290.608 45.71L294.598 36.61C296.371 37.6833 298.448 38.5467 300.828 39.2C303.208 39.8067 305.541 40.11 307.828 40.11C310.068 40.11 311.608 39.8767 312.448 39.41C313.334 38.9433 313.778 38.3133 313.778 37.52C313.778 36.7733 313.358 36.2367 312.518 35.91C311.724 35.5367 310.651 35.2567 309.298 35.07C307.991 34.8833 306.544 34.6733 304.958 34.44C303.371 34.2067 301.761 33.9033 300.128 33.53C298.541 33.11 297.071 32.5033 295.718 31.71C294.411 30.87 293.361 29.75 292.568 28.35C291.774 26.95 291.378 25.1767 291.378 23.03C291.378 20.6033 292.078 18.4567 293.478 16.59C294.924 14.6767 297.024 13.1833 299.778 12.11C302.531 10.99 305.891 10.43 309.858 10.43C312.518 10.43 315.201 10.71 317.908 11.27C320.661 11.7833 322.971 12.5767 324.838 13.65L320.848 22.68C318.981 21.6067 317.114 20.8833 315.248 20.51C313.381 20.09 311.608 19.88 309.928 19.88C307.688 19.88 306.101 20.1367 305.168 20.65C304.281 21.1633 303.838 21.7933 303.838 22.54C303.838 23.2867 304.234 23.87 305.028 24.29C305.821 24.6633 306.871 24.9667 308.178 25.2C309.531 25.3867 311.001 25.5967 312.588 25.83C314.174 26.0167 315.761 26.32 317.348 26.74C318.981 27.16 320.451 27.79 321.758 28.63C323.111 29.4233 324.184 30.52 324.978 31.92C325.771 33.2733 326.168 35.0233 326.168 37.17C326.168 39.5033 325.444 41.6033 323.998 43.47C322.598 45.3367 320.498 46.83 317.698 47.95C314.944 49.07 311.514 49.63 307.408 49.63ZM348.839 49.63C343.986 49.63 340.206 48.44 337.499 46.06C334.792 43.6333 333.439 39.9933 333.439 35.14V2.59H346.739V35C346.739 36.3533 347.112 37.4267 347.859 38.22C348.606 38.9667 349.562 39.34 350.729 39.34C352.316 39.34 353.669 38.9433 354.789 38.15L358.079 47.46C356.959 48.2067 355.582 48.7433 353.949 49.07C352.316 49.4433 350.612 49.63 348.839 49.63ZM327.909 22.4V12.46H355.419V22.4H327.909ZM381.994 49.63C377.514 49.63 373.594 48.79 370.234 47.11C366.92 45.3833 364.33 43.05 362.464 40.11C360.644 37.1233 359.734 33.74 359.734 29.96C359.734 26.18 360.62 22.82 362.394 19.88C364.214 16.8933 366.71 14.5833 369.884 12.95C373.057 11.27 376.627 10.43 380.594 10.43C384.327 10.43 387.734 11.2 390.814 12.74C393.894 14.2333 396.344 16.45 398.164 19.39C399.984 22.33 400.894 25.9 400.894 30.1C400.894 30.5667 400.87 31.1033 400.824 31.71C400.777 32.3167 400.73 32.8767 400.684 33.39H370.654V26.39H393.614L388.574 28.35C388.62 26.6233 388.294 25.13 387.594 23.87C386.94 22.61 386.007 21.63 384.794 20.93C383.627 20.23 382.25 19.88 380.664 19.88C379.077 19.88 377.677 20.23 376.464 20.93C375.297 21.63 374.387 22.6333 373.734 23.94C373.08 25.2 372.754 26.6933 372.754 28.42V30.45C372.754 32.3167 373.127 33.9267 373.874 35.28C374.667 36.6333 375.787 37.6833 377.234 38.43C378.68 39.13 380.407 39.48 382.414 39.48C384.28 39.48 385.867 39.2233 387.174 38.71C388.527 38.15 389.857 37.31 391.164 36.19L398.164 43.47C396.344 45.4767 394.104 47.0167 391.444 48.09C388.784 49.1167 385.634 49.63 381.994 49.63ZM420.816 49.63C417.596 49.63 414.446 49.2567 411.366 48.51C408.333 47.7633 405.883 46.83 404.016 45.71L408.006 36.61C409.779 37.6833 411.856 38.5467 414.236 39.2C416.616 39.8067 418.949 40.11 421.236 40.11C423.476 40.11 425.016 39.8767 425.856 39.41C426.743 38.9433 427.186 38.3133 427.186 37.52C427.186 36.7733 426.766 36.2367 425.926 35.91C425.133 35.5367 424.059 35.2567 422.706 35.07C421.399 34.8833 419.953 34.6733 418.366 34.44C416.779 34.2067 415.169 33.9033 413.536 33.53C411.949 33.11 410.479 32.5033 409.126 31.71C407.819 30.87 406.769 29.75 405.976 28.35C405.183 26.95 404.786 25.1767 404.786 23.03C404.786 20.6033 405.486 18.4567 406.886 16.59C408.333 14.6767 410.433 13.1833 413.186 12.11C415.939 10.99 419.299 10.43 423.266 10.43C425.926 10.43 428.609 10.71 431.316 11.27C434.069 11.7833 436.379 12.5767 438.246 13.65L434.256 22.68C432.389 21.6067 430.523 20.8833 428.656 20.51C426.789 20.09 425.016 19.88 423.336 19.88C421.096 19.88 419.509 20.1367 418.576 20.65C417.689 21.1633 417.246 21.7933 417.246 22.54C417.246 23.2867 417.643 23.87 418.436 24.29C419.229 24.6633 420.279 24.9667 421.586 25.2C422.939 25.3867 424.409 25.5967 425.996 25.83C427.583 26.0167 429.169 26.32 430.756 26.74C432.389 27.16 433.859 27.79 435.166 28.63C436.519 29.4233 437.593 30.52 438.386 31.92C439.179 33.2733 439.576 35.0233 439.576 37.17C439.576 39.5033 438.853 41.6033 437.406 43.47C436.006 45.3367 433.906 46.83 431.106 47.95C428.353 49.07 424.923 49.63 420.816 49.63ZM462.247 49.63C457.394 49.63 453.614 48.44 450.907 46.06C448.2 43.6333 446.847 39.9933 446.847 35.14V2.59H460.147V35C460.147 36.3533 460.52 37.4267 461.267 38.22C462.014 38.9667 462.97 39.34 464.137 39.34C465.724 39.34 467.077 38.9433 468.197 38.15L471.487 47.46C470.367 48.2067 468.99 48.7433 467.357 49.07C465.724 49.4433 464.02 49.63 462.247 49.63ZM441.317 22.4V12.46H468.827V22.4H441.317ZM2.9 134V85H26.07C31.4833 85 36.2433 86.0033 40.35 88.01C44.4567 90.0167 47.6533 92.84 49.94 96.48C52.2733 100.12 53.44 104.46 53.44 109.5C53.44 114.493 52.2733 118.833 49.94 122.52C47.6533 126.16 44.4567 128.983 40.35 130.99C36.2433 132.997 31.4833 134 26.07 134H2.9ZM16.76 122.94H25.51C28.31 122.94 30.7367 122.427 32.79 121.4C34.89 120.327 36.5233 118.787 37.69 116.78C38.8567 114.727 39.44 112.3 39.44 109.5C39.44 106.653 38.8567 104.227 37.69 102.22C36.5233 100.213 34.89 98.6967 32.79 97.67C30.7367 96.5967 28.31 96.06 25.51 96.06H16.76V122.94ZM79.982 134.63C75.502 134.63 71.582 133.79 68.222 132.11C64.9087 130.383 62.3187 128.05 60.452 125.11C58.632 122.123 57.722 118.74 57.722 114.96C57.722 111.18 58.6087 107.82 60.382 104.88C62.202 101.893 64.6987 99.5833 67.872 97.95C71.0454 96.27 74.6154 95.43 78.582 95.43C82.3154 95.43 85.722 96.2 88.802 97.74C91.882 99.2333 94.332 101.45 96.152 104.39C97.972 107.33 98.882 110.9 98.882 115.1C98.882 115.567 98.8587 116.103 98.812 116.71C98.7654 117.317 98.7187 117.877 98.672 118.39H68.642V111.39H91.602L86.562 113.35C86.6087 111.623 86.282 110.13 85.582 108.87C84.9287 107.61 83.9954 106.63 82.782 105.93C81.6154 105.23 80.2387 104.88 78.652 104.88C77.0654 104.88 75.6654 105.23 74.452 105.93C73.2854 106.63 72.3754 107.633 71.722 108.94C71.0687 110.2 70.742 111.693 70.742 113.42V115.45C70.742 117.317 71.1154 118.927 71.862 120.28C72.6554 121.633 73.7754 122.683 75.222 123.43C76.6687 124.13 78.3954 124.48 80.402 124.48C82.2687 124.48 83.8554 124.223 85.162 123.71C86.5154 123.15 87.8454 122.31 89.152 121.19L96.152 128.47C94.332 130.477 92.092 132.017 89.432 133.09C86.772 134.117 83.622 134.63 79.982 134.63ZM105.014 134V82.06H118.314V134H105.014ZM126.958 134V96.06H140.258V134H126.958ZM133.608 91.86C131.181 91.86 129.221 91.1833 127.728 89.83C126.234 88.4767 125.488 86.7967 125.488 84.79C125.488 82.7833 126.234 81.1033 127.728 79.75C129.221 78.3967 131.181 77.72 133.608 77.72C136.034 77.72 137.994 78.3733 139.488 79.68C140.981 80.94 141.728 82.5733 141.728 84.58C141.728 86.68 140.981 88.43 139.488 89.83C138.041 91.1833 136.081 91.86 133.608 91.86ZM159.471 134L143.861 96.06H157.511L169.971 127.77H163.111L176.201 96.06H188.871L173.191 134H159.471ZM211.164 134.63C206.684 134.63 202.764 133.79 199.404 132.11C196.09 130.383 193.5 128.05 191.634 125.11C189.814 122.123 188.904 118.74 188.904 114.96C188.904 111.18 189.79 107.82 191.564 104.88C193.384 101.893 195.88 99.5833 199.054 97.95C202.227 96.27 205.797 95.43 209.764 95.43C213.497 95.43 216.904 96.2 219.984 97.74C223.064 99.2333 225.514 101.45 227.334 104.39C229.154 107.33 230.064 110.9 230.064 115.1C230.064 115.567 230.04 116.103 229.994 116.71C229.947 117.317 229.9 117.877 229.854 118.39H199.824V111.39H222.784L217.744 113.35C217.79 111.623 217.464 110.13 216.764 108.87C216.11 107.61 215.177 106.63 213.964 105.93C212.797 105.23 211.42 104.88 209.834 104.88C208.247 104.88 206.847 105.23 205.634 105.93C204.467 106.63 203.557 107.633 202.904 108.94C202.25 110.2 201.924 111.693 201.924 113.42V115.45C201.924 117.317 202.297 118.927 203.044 120.28C203.837 121.633 204.957 122.683 206.404 123.43C207.85 124.13 209.577 124.48 211.584 124.48C213.45 124.48 215.037 124.223 216.344 123.71C217.697 123.15 219.027 122.31 220.334 121.19L227.334 128.47C225.514 130.477 223.274 132.017 220.614 133.09C217.954 134.117 214.804 134.63 211.164 134.63ZM236.196 134V96.06H248.866V107.12L246.976 103.97C248.096 101.123 249.916 99 252.436 97.6C254.956 96.1533 258.012 95.43 261.606 95.43V107.4C260.999 107.307 260.462 107.26 259.996 107.26C259.576 107.213 259.109 107.19 258.596 107.19C255.889 107.19 253.696 107.937 252.016 109.43C250.336 110.877 249.496 113.257 249.496 116.57V134H236.196ZM274.766 148.21C272.76 148.21 270.73 147.883 268.676 147.23C266.67 146.623 265.036 145.807 263.776 144.78L268.396 135.47C269.19 136.17 270.1 136.707 271.126 137.08C272.2 137.5 273.25 137.71 274.276 137.71C275.723 137.71 276.866 137.383 277.706 136.73C278.546 136.077 279.27 135.05 279.876 133.65L281.626 129.24L282.676 127.91L295.556 96.06H308.226L291.846 135.54C290.54 138.807 289.023 141.35 287.296 143.17C285.616 145.037 283.726 146.343 281.626 147.09C279.573 147.837 277.286 148.21 274.766 148.21ZM279.946 135.61L263.216 96.06H276.866L289.186 126.72L279.946 135.61ZM2.27 219V181.06H15.57V219H2.27ZM8.92 176.86C6.49333 176.86 4.53333 176.183 3.04 174.83C1.54667 173.477 0.8 171.797 0.8 169.79C0.8 167.783 1.54667 166.103 3.04 164.75C4.53333 163.397 6.49333 162.72 8.92 162.72C11.3467 162.72 13.3067 163.373 14.8 164.68C16.2933 165.94 17.04 167.573 17.04 169.58C17.04 171.68 16.2933 173.43 14.8 174.83C13.3533 176.183 11.3933 176.86 8.92 176.86ZM48.9234 180.43C51.8634 180.43 54.5234 181.037 56.9034 182.25C59.2834 183.417 61.15 185.237 62.5034 187.71C63.9034 190.183 64.6034 193.38 64.6034 197.3V219H51.3034V199.47C51.3034 196.763 50.7434 194.803 49.6234 193.59C48.55 192.33 47.0334 191.7 45.0734 191.7C43.6734 191.7 42.39 192.027 41.2234 192.68C40.0567 193.287 39.1467 194.243 38.4934 195.55C37.84 196.857 37.5134 198.56 37.5134 200.66V219H24.2134V181.06H36.8834V191.84L34.4334 188.69C35.88 185.937 37.8634 183.883 40.3834 182.53C42.9034 181.13 45.75 180.43 48.9234 180.43Z" fill="black"/>
<path d="M106.345 219V198.28L109.565 206.61L87.6547 170H102.285L118.105 196.53H109.635L125.525 170H138.965L117.125 206.61L120.205 198.28V219H106.345ZM156.73 219.63C152.577 219.63 148.89 218.79 145.67 217.11C142.45 215.43 139.907 213.12 138.04 210.18C136.22 207.193 135.31 203.787 135.31 199.96C135.31 196.133 136.22 192.75 138.04 189.81C139.907 186.87 142.45 184.583 145.67 182.95C148.89 181.27 152.577 180.43 156.73 180.43C160.883 180.43 164.57 181.27 167.79 182.95C171.057 184.583 173.6 186.87 175.42 189.81C177.24 192.75 178.15 196.133 178.15 199.96C178.15 203.787 177.24 207.193 175.42 210.18C173.6 213.12 171.057 215.43 167.79 217.11C164.57 218.79 160.883 219.63 156.73 219.63ZM156.73 209.06C158.27 209.06 159.623 208.71 160.79 208.01C162.003 207.31 162.96 206.283 163.66 204.93C164.36 203.53 164.71 201.873 164.71 199.96C164.71 198.047 164.36 196.437 163.66 195.13C162.96 193.777 162.003 192.75 160.79 192.05C159.623 191.35 158.27 191 156.73 191C155.237 191 153.883 191.35 152.67 192.05C151.503 192.75 150.547 193.777 149.8 195.13C149.1 196.437 148.75 198.047 148.75 199.96C148.75 201.873 149.1 203.53 149.8 204.93C150.547 206.283 151.503 207.31 152.67 208.01C153.883 208.71 155.237 209.06 156.73 209.06ZM200.271 219.63C197.191 219.63 194.414 219.023 191.941 217.81C189.514 216.597 187.601 214.707 186.201 212.14C184.848 209.527 184.171 206.237 184.171 202.27V181.06H197.471V200.1C197.471 203.04 198.008 205.14 199.081 206.4C200.201 207.66 201.764 208.29 203.771 208.29C205.078 208.29 206.268 207.987 207.341 207.38C208.414 206.773 209.278 205.817 209.931 204.51C210.584 203.157 210.911 201.43 210.911 199.33V181.06H224.211V219H211.541V208.29L213.991 211.3C212.684 214.1 210.794 216.2 208.321 217.6C205.848 218.953 203.164 219.63 200.271 219.63ZM232.778 219V181.06H245.448V192.12L243.558 188.97C244.678 186.123 246.498 184 249.018 182.6C251.538 181.153 254.594 180.43 258.188 180.43V192.4C257.581 192.307 257.044 192.26 256.578 192.26C256.158 192.213 255.691 192.19 255.178 192.19C252.471 192.19 250.278 192.937 248.598 194.43C246.918 195.877 246.078 198.257 246.078 201.57V219H232.778ZM309.244 219.98C305.371 219.98 301.777 219.373 298.464 218.16C295.197 216.9 292.351 215.127 289.924 212.84C287.544 210.553 285.677 207.87 284.324 204.79C282.971 201.663 282.294 198.233 282.294 194.5C282.294 190.767 282.971 187.36 284.324 184.28C285.677 181.153 287.544 178.447 289.924 176.16C292.351 173.873 295.197 172.123 298.464 170.91C301.777 169.65 305.371 169.02 309.244 169.02C313.771 169.02 317.807 169.813 321.354 171.4C324.947 172.987 327.934 175.273 330.314 178.26L321.494 186.24C319.907 184.373 318.157 182.95 316.244 181.97C314.377 180.99 312.277 180.5 309.944 180.5C307.937 180.5 306.094 180.827 304.414 181.48C302.734 182.133 301.287 183.09 300.074 184.35C298.907 185.563 297.974 187.033 297.274 188.76C296.621 190.487 296.294 192.4 296.294 194.5C296.294 196.6 296.621 198.513 297.274 200.24C297.974 201.967 298.907 203.46 300.074 204.72C301.287 205.933 302.734 206.867 304.414 207.52C306.094 208.173 307.937 208.5 309.944 208.5C312.277 208.5 314.377 208.01 316.244 207.03C318.157 206.05 319.907 204.627 321.494 202.76L330.314 210.74C327.934 213.68 324.947 215.967 321.354 217.6C317.807 219.187 313.771 219.98 309.244 219.98ZM335.864 219V181.06H349.164V219H335.864ZM342.514 176.86C340.087 176.86 338.127 176.183 336.634 174.83C335.14 173.477 334.394 171.797 334.394 169.79C334.394 167.783 335.14 166.103 336.634 164.75C338.127 163.397 340.087 162.72 342.514 162.72C344.94 162.72 346.9 163.373 348.394 164.68C349.887 165.94 350.634 167.573 350.634 169.58C350.634 171.68 349.887 173.43 348.394 174.83C346.947 176.183 344.987 176.86 342.514 176.86ZM374.747 219.63C369.894 219.63 366.114 218.44 363.407 216.06C360.7 213.633 359.347 209.993 359.347 205.14V172.59H372.647V205C372.647 206.353 373.02 207.427 373.767 208.22C374.514 208.967 375.47 209.34 376.637 209.34C378.224 209.34 379.577 208.943 380.697 208.15L383.987 217.46C382.867 218.207 381.49 218.743 379.857 219.07C378.224 219.443 376.52 219.63 374.747 219.63ZM353.817 192.4V182.46H381.327V192.4H353.817ZM394.942 233.21C392.935 233.21 390.905 232.883 388.852 232.23C386.845 231.623 385.212 230.807 383.952 229.78L388.572 220.47C389.365 221.17 390.275 221.707 391.302 222.08C392.375 222.5 393.425 222.71 394.452 222.71C395.899 222.71 397.042 222.383 397.882 221.73C398.722 221.077 399.445 220.05 400.052 218.65L401.802 214.24L402.852 212.91L415.732 181.06H428.402L412.022 220.54C410.715 223.807 409.199 226.35 407.472 228.17C405.792 230.037 403.902 231.343 401.802 232.09C399.749 232.837 397.462 233.21 394.942 233.21ZM400.122 220.61L383.392 181.06H397.042L409.362 211.72L400.122 220.61Z" fill="#FD6B22"/>
</svg>
