<svg width="45" height="45" viewBox="0 0 45 45" fill="none" xmlns="http://www.w3.org/2000/svg">
<rect opacity="0.2" width="45" height="45" rx="22.5" fill="#36C5A7"/>
<path d="M15.795 18.056C15.795 16.807 16.807 15.795 18.056 15.794H19.085C19.682 15.794 20.254 15.557 20.678 15.137L21.397 14.417C22.278 13.531 23.71 13.527 24.596 14.408L24.597 14.409L24.606 14.417L25.326 15.137C25.75 15.558 26.322 15.794 26.919 15.794H27.947C29.196 15.794 30.209 16.806 30.209 18.056V19.083C30.209 19.68 30.445 20.253 30.866 20.677L31.586 21.397C32.472 22.278 32.477 23.71 31.596 24.596L31.595 24.597L31.586 24.606L30.866 25.326C30.445 25.749 30.209 26.321 30.209 26.918V27.947C30.209 29.196 29.197 30.208 27.948 30.208H27.947H26.917C26.32 30.208 25.747 30.445 25.324 30.866L24.604 31.585C23.724 32.471 22.293 32.476 21.407 31.597C21.406 31.596 21.405 31.595 21.404 31.594L21.395 31.585L20.676 30.866C20.253 30.445 19.68 30.209 19.083 30.208H18.056C16.807 30.208 15.795 29.196 15.795 27.947V26.916C15.795 26.319 15.558 25.747 15.137 25.324L14.418 24.604C13.532 23.724 13.527 22.293 14.407 21.407C14.407 21.406 14.408 21.405 14.409 21.404L14.418 21.395L15.137 20.675C15.558 20.251 15.795 19.679 15.795 19.081V18.056" stroke="#36C5A7" stroke-width="1.5" stroke-linecap="round" stroke-linejoin="round"/>
<path d="M20.4316 25.5718L25.5716 20.4318" stroke="#36C5A7" stroke-width="1.5" stroke-linecap="round" stroke-linejoin="round"/>
<path d="M25.4955 25.5H25.5045" stroke="#36C5A7" stroke-width="2" stroke-linecap="round" stroke-linejoin="round"/>
<path d="M20.4955 20.5H20.5045" stroke="#36C5A7" stroke-width="2" stroke-linecap="round" stroke-linejoin="round"/>
</svg>
